inDegrees=no
num_controls=7
num_derivatives=13
num_iterations=85
num_multipliers=7
num_parameters=0
num_slacks=7
num_states=26
objective=0.471037
objective_accelerations=0.087364
objective_balance=0.002516
objective_effort=0.038736
objective_height=0.340862
objective_ligament=0.001559
solver_duration=905.474225
status=Solve_Succeeded
success=true
DataType=double
version=3
OpenSimVersion=4.5
endheader
time	/jointset/ground_pelvis/pelvis_tilt/value	/jointset/ground_pelvis/pelvis_tx/value	/jointset/ground_pelvis/pelvis_ty/value	/jointset/hip_r/hip_flexion_r/value	/jointset/hip_r/hip_adduction_r/value	/jointset/hip_r/hip_rotation_r/value	/jointset/back/lumbar_extension/value	/jointset/patellofemoral_r/patellar_flexion_r/value	/jointset/knee_r/knee_flexion_r/value	/jointset/knee_r/knee_adduction_r/value	/jointset/knee_r/knee_rotation_r/value	/jointset/ankle_r/ankle_angle_r/value	/jointset/subtalar_r/subtalar_angle_r/value	/jointset/ground_pelvis/pelvis_tilt/speed	/jointset/ground_pelvis/pelvis_tx/speed	/jointset/ground_pelvis/pelvis_ty/speed	/jointset/hip_r/hip_flexion_r/speed	/jointset/hip_r/hip_adduction_r/speed	/jointset/hip_r/hip_rotation_r/speed	/jointset/back/lumbar_extension/speed	/jointset/patellofemoral_r/patellar_flexion_r/speed	/jointset/knee_r/knee_flexion_r/speed	/jointset/knee_r/knee_adduction_r/speed	/jointset/knee_r/knee_rotation_r/speed	/jointset/ankle_r/ankle_angle_r/speed	/jointset/subtalar_r/subtalar_angle_r/speed	/forceset/tau_hip_flexion_r	/forceset/tau_hip_adduction_r	/forceset/tau_hip_rotation_r	/forceset/tau_knee_flexion_r	/forceset/tau_ankle_angle_r	/forceset/tau_subtalar_angle_r	/forceset/tau_lumbar_extension	lambda_cid13_p0	lambda_cid14_p0	lambda_cid14_p1	lambda_cid14_p2	lambda_cid14_p3	lambda_cid14_p4	lambda_cid14_p5	/jointset/ground_pelvis/pelvis_tilt/accel	/jointset/ground_pelvis/pelvis_tx/accel	/jointset/ground_pelvis/pelvis_ty/accel	/jointset/hip_r/hip_flexion_r/accel	/jointset/hip_r/hip_adduction_r/accel	/jointset/hip_r/hip_rotation_r/accel	/jointset/back/lumbar_extension/accel	/jointset/patellofemoral_r/patellar_flexion_r/accel	/jointset/knee_r/knee_flexion_r/accel	/jointset/knee_r/knee_adduction_r/accel	/jointset/knee_r/knee_rotation_r/accel	/jointset/ankle_r/ankle_angle_r/accel	/jointset/subtalar_r/subtalar_angle_r/accel	gamma_cid13_p0	gamma_cid14_p0	gamma_cid14_p1	gamma_cid14_p2	gamma_cid14_p3	gamma_cid14_p4	gamma_cid14_p5
1.5	-0.1858019240105526	-0.01960994467004357	0.6906929791831808	1.265846827784068	-0.2389979335578256	-0.03009643218640055	-0.6911808028475924	1.34848270051999	1.348482700519988	-0.06068727022370569	0.1744892753494963	0.3705688040503068	0.1422755886939214	0.608819721873719	0.2365726154689027	1.011190751059534	-3.148778259365411	0.02544687888085008	-0.4509162321274292	0.7471903598271755	-2.945116194716933	-2.945116194716943	0.4413858307780604	0.001477378079487402	-0.5373736527478458	-0.178698325233303	-0.2479277531988633	0.009876239859788473	0.02066263459817386	-0.3785312012310326	0.05501128012807008	-0.008240522602126987	0.2830382479642782	-0.0431846788489782	-25.43085782410037	-10.34722013870006	4.716538047973638	-17.25428872053739	-639.1199632909795	56.42296430766967	1.534329992649333	1.383047904459812	-0.6382868583885704	-2.190966642790054	0.08919692485248323	-0.3934537659223431	3.105188804497818	-2.542846538716002	-2.542846538715992	0.4792233844913407	-0.07470513025501596	-2.042277431601414	-0.5178302696011717	3.037314597122077e-07	1.490546384475732e-07	-1.351427322464139e-06	1.733018546281017e-06	1.940671431005446e-07	3.421448702204994e-07	1.256035317629227e-07
1.51	-0.1796380230570264	-0.01717528984280509	0.7007704604687068	1.234253043553629	-0.2387408471845109	-0.03462110224949746	-0.6835550930282234	1.318908527288918	1.318908527288918	-0.05624317328734824	0.1745021381534971	0.3650938175696011	0.1404601952166107	0.6238015064099981	0.2503306337538643	1.004048506049278	-3.169555019982383	0.02593931104362283	-0.454073823142348	0.7778631030885464	-2.969319996382097	-2.969319996382162	0.4473596699871838	0.001092028664932023	-0.5574760998494336	-0.1843336517771415	-0.2373827963090841	0.008791791009165682	0.02062633029129396	-0.3683302428129021	0.05463795558351366	-0.007726617720865709	0.2729457121442221	-0.04326141806485985	-24.76313350879418	-9.767705482895563	4.350683991961009	-16.96883157155458	-627.9906247737832	56.00944493763821	1.456378626687052	1.367938891467257	-0.7906489336780749	-1.957361363950033	0.02546049132669106	-0.2844614350906614	3.03504194326201	-2.299541764488242	-2.299541764496413	0.6450648513200922	-0.01947667606718539	-1.972068965966083	-0.5784579130898063	6.413382420681548e-07	5.640836687280704e-07	1.273305296851524e-07	4.938337524643301e-06	-2.061525367485723e-07	4.278100848204267e-07	3.135824175419694e-06
1.52	-0.1733290490696244	-0.01460390281252636	0.7107688281818636	1.20246422559846	-0.2384795976637016	-0.03917885815590583	-0.6756253108049797	1.289104237084379	1.289104237084383	-0.0517416178264646	0.1745113420975559	0.3594222384945737	0.1385900336605987	0.6378343286490727	0.2639190560769508	0.9953680365856612	-3.187785004311328	0.0262795083798774	-0.4575334007898306	0.808004840602129	-2.991139589410124	-2.991139589410244	0.4528775356841967	0.0007456060899236156	-0.5766921716121668	-0.1896519409735657	-0.2268378394193044	0.007707342158540661	0.02059002598444862	-0.3581292843947686	0.05426463103895638	-0.007212712839608598	0.262853176324166	-0.04326855498424031	-24.09618850985493	-9.18563299178426	3.981339412447717	-16.72811275993123	-616.8611392466468	55.73364758711355	1.344537533208457	1.349128712084782	-0.9459317490609332	-1.681611385184761	0.05874995954887444	-0.453851092435089	2.998987654940151	-2.066004811288444	-2.066004811288503	0.3880286820691961	-0.06691976234569944	-1.865002363830527	-0.4544228001182618	7.962622987678023e-07	7.484511911177575e-07	3.689146103186319e-07	6.281590307315011e-06	-3.617604452447186e-07	5.299661387161251e-07	4.004873286753567e-06
1.53	-0.1668844562678377	-0.01189763208010416	0.7206728878292915	1.170505525808214	-0.2382160210353187	-0.04377375838091229	-0.6673974972397896	1.259093444416319	1.259093444416333	-0.04718739740597595	0.1745181505572762	0.3535629087684458	0.1366677840078021	0.6509035291595571	0.2772907662749353	0.9851959741986225	-3.203508654203121	0.02640641274234872	-0.4614057492013267	0.8374303298125988	-3.010599326168632	-3.010599326168719	0.4579933831666401	0.0005854832853494221	-0.5950156465389854	-0.1947487966149692	-0.215987785120938	0.006431570793390245	0.02074781528701061	-0.3484401208573001	0.05418177379295107	-0.006961587953606648	0.2524331068942114	-0.04342922326227564	-23.37995096450069	-8.746218826220485	3.677193102431439	-16.38149092279466	-605.9378769145206	55.31400270508012	1.261091700243338	1.324503226693517	-1.089888546021522	-1.450695446782933	-0.01413082384667824	-0.3468957700685239	2.895198160623909	-1.823162625688395	-1.823162625683557	0.5769247486827217	0.005921422149003937	-1.792208184946677	-0.5295133149850665	7.570859594576334e-07	6.877408613734612e-07	-7.039984412834239e-07	5.646397757065507e-06	-2.574683466783362e-07	6.496437093635799e-07	2.59892764499439e-06
1.54	-0.1603145753828922	-0.009058982035094421	0.7304678178403498	1.138402998787928	-0.2379519336630005	-0.04840597590094684	-0.6588792550611902	1.228900613477162	1.228900613477188	-0.04258130611720042	0.1745226537813012	0.347525106667482	0.1346961265248247	0.6628919452810399	0.2903949185944588	0.9735421093117361	-3.216550450319165	0.0263816571671055	-0.4649968597952934	0.8660905632840097	-3.027547243629399	-3.027547243629454	0.4632517093431167	0.000284558947270299	-0.6123866465793708	-0.1995335070097216	-0.2051377308225722	0.005155799428230724	0.02090560458961497	-0.338750957319828	0.05409891654694293	-0.006710463067621929	0.2420130374642562	-0.1431264245457407	-22.6530672270399	-8.295541167813449	3.360510494441539	-16.10309972846581	-594.8657937177124	55.02179379870844	1.128380655408173	1.295617136392588	-1.24229224903046	-1.14524063003491	0.02841797200597527	-0.3976035289292192	2.845936507128414	-1.563640951740324	-1.563640951740325	0.4165244208757689	-0.09508006904673051	-1.67450738654392	-0.3919937507880057	7.169735828729572e-07	6.217440378330495e-07	-1.745750987840804e-06	4.988171000096351e-06	-1.473631582185002e-07	7.568629658281959e-07	1.27188470988459e-06
1.55	-0.1536300789868016	-0.006090757790953616	0.7401389914319032	1.106183123901627	-0.2376889455640153	-0.05307486826973831	-0.6500787506339326	1.198550672392677	1.198550672392691	-0.03792360611160015	0.1745242718977355	0.3413184670363122	0.132678144171183	0.6738183143507632	0.3031909151919153	0.9604569005294148	-3.226965320907038	0.02619779333709977	-0.4687562700081386	0.8938576048754303	-3.042002358133502	-3.042002358133504	0.4682865677723831	-1.305481503280595e-06	-0.6287643824280208	-0.2039916991204162	-0.1943759627648793	0.003591770996904279	0.02115848610596008	-0.329676841067787	0.05398385629526525	-0.006664044574945468	0.2316278723988385	-0.4195325041778317	-21.99676270674163	-7.958497988208254	3.076080238775689	-15.6680293028091	-584.360012587552	54.65732520444357	1.046465761975919	1.262745531177841	-1.376811199309127	-0.9206600156585346	-0.0441598008026159	-0.360414429127256	2.719180391357089	-1.320785009403465	-1.320785009395499	0.5460895524526573	-0.0006991482035101984	-1.592721312959251	-0.4621012738317895	6.757827285589572e-07	5.496562540492875e-07	-2.751601213368451e-06	4.303404831037167e-06	-3.056027922925062e-08	8.497280776908462e-07	3.575141504471972e-08
1.56	-0.1468419787541706	-0.002996342658887067	0.7496722777343382	1.073872890360948	-0.2374282703513912	-0.05778041567299155	-0.6410051573095195	1.168069312501219	1.168069312501224	-0.03321573292201782	0.1745219594662369	0.3349533871208694	0.1306177060299098	0.6836127125893484	0.3156330961796077	0.9459646514880469	-3.234622181194712	0.02591907989514673	-0.4723278666875924	0.920708342715179	-3.05383100502393	-3.05383100502388	0.4732863461416744	-0.0005015506467057156	-0.6440747034340193	-0.2080246645359773	-0.1836141947071873	0.002027742565567298	0.02141136762234966	-0.3206027248157422	0.05386879604358439	-0.006617626082288276	0.2212427073334202	-0.8644440229504696	-21.32300569054568	-7.604032210165633	2.772459314284698	-15.31016068223713	-573.6137747126152	54.41338283540311	0.9019864891805697	1.224854014439756	-1.523700300839798	-0.5936385699951175	0.009448049616485864	-0.3600408222509817	2.66267575679403	-1.038347429005334	-1.038347429005339	0.4095084088806886	-0.1379562163324611	-1.461024418013585	-0.3069484117613225	6.40794269806849e-07	4.900820369092747e-07	-3.550050363405086e-06	3.731905955500701e-06	6.256112224054684e-08	9.228124012489832e-07	-9.424215745730485e-07
1.57	-0.1399615340351061	0.0002206161006080764	0.7590537935092978	1.041499706693731	-0.2371707530346462	-0.06252173072060335	-0.6316680003805313	1.137482803050025	1.137482803050028	-0.02845897673628745	0.1745136969819895	0.3284407337680947	0.1285193356111964	0.6922808209474844	0.3276868124708439	0.9301187131331864	-3.239543330102267	0.0255753117237996	-0.4758888592524422	0.9465450729852452	-3.063010105675013	-3.063010105675084	0.4780638615084412	-0.001212668841298795	-0.6582603876881948	-0.2115634214217798	-0.1729742483034016	0.0001256097275314607	0.02174144659639238	-0.3124069367840168	0.05398259901439068	-0.006802585126579816	0.2109729281858988	-1.470534997510373	-20.65135299828242	-7.367199622386447	2.50675865026664	-14.87910205036207	-563.6722507291677	54.12447893363555	0.8199461667209833	1.184886479686393	-1.647809355737598	-0.3706195837018593	-0.05747711017447947	-0.3463222044428221	2.517476147548146	-0.7886940276934795	-0.7886940277117027	0.5110168132803804	-0.04646846006785073	-1.367823647599883	-0.3647730744179939	6.135588055071053e-07	4.46149778073948e-07	-4.08924816907796e-06	3.301991196867636e-06	1.260806768110294e-07	9.711707394264789e-07	-1.598144182663192e-06
